<?xml version="1.0" standalone="no"?>
<!DOCTYPE svg PUBLIC "-//W3C//DTD SVG 20010904//EN"
 "http://www.w3.org/TR/2001/REC-SVG-20010904/DTD/svg10.dtd">
<svg version="1.0" xmlns="http://www.w3.org/2000/svg"
 width="512.000000pt" height="512.000000pt" viewBox="0 0 512.000000 512.000000"
 preserveAspectRatio="xMidYMid meet">

<g transform="translate(0.000000,512.000000) scale(0.100000,-0.100000)"
fill="#000000" stroke="none">
<path d="M343 3974 c-57 -21 -138 -96 -171 -158 -23 -44 -27 -63 -27 -136 0
-73 4 -93 27 -140 23 -46 219 -247 1208 -1235 l1180 -1180 1180 1180 c989 988
1185 1189 1208 1235 23 47 27 67 27 140 0 73 -4 92 -27 136 -35 67 -115 138
-179 159 -70 24 -178 17 -244 -14 -40 -19 -236 -210 -1007 -980 l-958 -956
-957 956 c-769 768 -968 961 -1008 980 -63 30 -188 36 -252 13z"/>
</g>
</svg>
